<svg xmlns="http://www.w3.org/2000/svg" width="163.67251586914062" height="243.29660034179688" viewBox="-1.3753204345703125 -20.666351318359375 163.67251586914062 243.29660034179688"><title>Neo4j Graph Visualization</title><desc>Created using Neo4j (http://www.neo4j.com/)</desc><g class="layer relationships"><g class="relationship" transform="translate(133.29719129299173 8.333647843620643) rotate(522.0002266043722)"><path class="outline" fill="#A5ABB6" stroke="none" d="M 21.40063509461097,12.933012701892217 L 21.90063509461097,12.06698729810778 A 59.941125839426554 59.941125839426554 0 0 0 40.50492008620424,19.01005009945294 L 40.31529605480769,19.991906874505652 A 60.941125839426554 60.941125839426554 0 0 1 21.40063509461097,12.933012701892217 Z M 59.71893848858113,20.590163591310883 L 59.59016271743876,19.598489854254844 A 59.941125839426554 59.941125839426554 0 0 0 78.58684295050061,13.814747014653369 L 77.24974869866372,11.129196985012374 L 85.07597539496908,11.142452098640781 L 80.36963528628314,17.395480387508027 L 79.03254103444625,14.709930357867032 A 60.941125839426554 60.941125839426554 0 0 1 59.71893848858113,20.590163591310883"/><text text-anchor="middle" pointer-events="none" font-size="8px" fill="#000000" x="50.00855109513446" y="23.568867511802694" transform="rotate(180 50.00855109513446 20.568867511802694)" font-family="sans-serif">trek</text></g><g class="relationship" transform="translate(31.100750390312413 41.53883752116425) rotate(451.86742209073293)"><path class="outline" fill="#A5ABB6" stroke="none" d="M 25 0.5 L 40.167448172535146 0.5 L 40.167448172535146 -0.5 L 25 -0.5 Z M 59.503385672535146 0.5 L 74.67083384507029 0.5 L 74.67083384507029 3.5 L 81.67083384507029 0 L 74.67083384507029 -3.5 L 74.67083384507029 -0.5 L 59.503385672535146 -0.5 Z"/><text text-anchor="middle" pointer-events="none" font-size="8px" fill="#000000" x="49.835416922535146" y="3" transform="rotate(180 49.835416922535146 0)" font-family="sans-serif">trek</text></g><g class="relationship" transform="translate(27.624679247473168 148.15301914168091) rotate(385.0665350049594)"><path class="outline" fill="#A5ABB6" stroke="none" d="M 25 0.5 L 40.50255339980203 0.5 L 40.50255339980203 -0.5 L 25 -0.5 Z M 59.83849089980203 0.5 L 75.34104429960406 0.5 L 75.34104429960406 3.5 L 82.34104429960406 0 L 75.34104429960406 -3.5 L 75.34104429960406 -0.5 L 59.83849089980203 -0.5 Z"/><text text-anchor="middle" pointer-events="none" font-size="8px" fill="#000000" x="50.17052214980203" y="3" font-family="sans-serif">trek</text></g><g class="relationship" transform="translate(133.29719129299173 8.333647843620643) rotate(522.0002266043722)"><path class="outline" fill="#A5ABB6" stroke="none" d="M 25 0.5 L 39.22192011265535 0.5 L 39.22192011265535 -0.5 L 25 -0.5 Z M 61.23363886265535 0.5 L 75.4555589753107 0.5 L 75.4555589753107 3.5 L 82.4555589753107 0 L 75.4555589753107 -3.5 L 75.4555589753107 -0.5 L 61.23363886265535 -0.5 Z"/><text text-anchor="middle" pointer-events="none" font-size="8px" fill="#000000" x="50.22777948765535" y="3" transform="rotate(180 50.22777948765535 0)" font-family="sans-serif">road</text></g><g class="relationship" transform="translate(133.29719129299173 8.333647843620643) rotate(522.0002266043722)"><path class="outline" fill="#A5ABB6" stroke="none" d="M 21.40063509461097,-12.933012701892217 L 21.90063509461097,-12.06698729810778 A 59.941125839426554 59.941125839426554 0 0 1 23.471221465580783,-12.942621064162736 L 22.997423615590062,-13.82325469816962 A 60.941125839426554 60.941125839426554 0 0 0 21.40063509461097,-12.933012701892217 Z M 77.38394144233087,-15.500109943495218 L 76.96529569077008,-14.591960322177172 A 59.941125839426554 59.941125839426554 0 0 1 78.58684295050061,-13.814747014653369 L 77.24974869866372,-11.129196985012374 L 85.07597539496908,-11.142452098640781 L 80.36963528628314,-17.395480387508027 L 79.03254103444625,-14.709930357867032 A 60.941125839426554 60.941125839426554 0 0 0 77.38394144233087,-15.500109943495218"/><text text-anchor="middle" pointer-events="none" font-size="8px" fill="#000000" x="50.00855109513445" y="-17.568867511802694" transform="rotate(180 50.00855109513445 -20.568867511802694)" font-family="sans-serif">PublicTrans…</text></g></g><g class="layer nodes"><g class="node" transform="translate(133.29719129299173,8.333647843620643)"><circle class="outline" cx="0" cy="0" r="25" fill="#F16667" stroke="#eb2728" stroke-width="2px"/><text text-anchor="middle" pointer-events="none" font-family="sans-serif" dy="1.5625" font-size="25" fill="#FFFFFF"/><text text-anchor="middle" pointer-events="none" x="0" y="5" font-size="10px" fill="#FFFFFF" font-family="sans-serif"> Darjeeling</text></g><g class="node" transform="translate(124.8559584832296,193.63024563481616)"><circle class="outline" cx="0" cy="0" r="25" fill="#8DCC93" stroke="#5db665" stroke-width="2px"/><text text-anchor="middle" pointer-events="none" font-family="sans-serif" dy="1.5625" font-size="25" fill="#2A2C34"/><text text-anchor="middle" pointer-events="none" x="0" y="5" font-size="10px" fill="#2A2C34" font-family="sans-serif"> Sandak…</text></g><g class="node" transform="translate(31.100750390312413,41.53883752116425)"><circle class="outline" cx="0" cy="0" r="25" fill="#F16667" stroke="#eb2728" stroke-width="2px"/><text text-anchor="middle" pointer-events="none" font-family="sans-serif" dy="1.5625" font-size="25" fill="#FFFFFF"/><text text-anchor="middle" pointer-events="none" x="0" y="5" font-size="10px" fill="#FFFFFF" font-family="sans-serif"> Rimbik</text></g><g class="node" transform="translate(27.624679247473168,148.15301914168091)"><circle class="outline" cx="0" cy="0" r="25" fill="#D9C8AE" stroke="#c0a378" stroke-width="2px"/><text text-anchor="middle" pointer-events="none" font-family="sans-serif" dy="1.5625" font-size="25" fill="#2A2C34"/><text text-anchor="middle" pointer-events="none" x="0" y="5" font-size="10px" fill="#2A2C34" font-family="sans-serif"> BhikeBh…</text></g></g></svg>