<svg xmlns="http://www.w3.org/2000/svg" width="1047.47021484375" height="315.2499084472656" viewBox="-403.6109619140625 -36.58320999145508 1047.47021484375 315.2499084472656"><title>Neo4j Graph Visualization</title><desc>Created using Neo4j (http://www.neo4j.com/)</desc><g class="layer relationships"><g class="relationship" transform="translate(-374.6109662377508 118.7851500616264) rotate(352.3077813233126)"><path class="outline" fill="#A5ABB6" stroke="none" d="M 24.018736134675446,-6.953439040707552 L 24.277555179777966,-5.987513214418485 A 393.87288768192025 393.87288768192025 0 0 1 112.49380534090547,-19.169181927079308 L 112.45895766555198,-20.16857456239461 A 394.87288768192025 394.87288768192025 0 0 0 24.018736134675446,-6.953439040707552 Z M 134.49519114396116,-20.321673554085123 L 134.47423292793584,-19.321893201617115 A 393.87288768192025 393.87288768192025 0 0 1 222.86512039722493,-7.367220686970597 L 222.12900148507055,-4.458934430913837 L 229.77380814671642,-6.134324267953169 L 223.84661228009742,-11.244935695046278 L 223.11049336794304,-8.336649438989518 A 394.87288768192025 394.87288768192025 0 0 0 134.49519114396116,-20.321673554085123"/><text text-anchor="middle" pointer-events="none" font-size="8px" fill="#000000" x="123.47947991023231" y="-16.898888725715665" font-family="sans-serif">road</text></g><g class="relationship" transform="translate(-122.88717267080496 84.78556870831304) rotate(332.6377418242123)"><path class="outline" fill="#A5ABB6" stroke="none" d="M 21.40063509461097,-12.933012701892217 L 21.90063509461097,-12.06698729810778 A 152.86198421570137 152.86198421570137 0 0 1 72.68385841596928,-30.379609601099204 L 72.51607458849848,-31.365433412558033 A 153.86198421570137 153.86198421570137 0 0 0 21.40063509461097,-12.933012701892217 Z M 118.9475304580468,-32.15919642589448 L 118.81354087406558,-31.16821368568931 A 152.86198421570137 152.86198421570137 0 0 1 170.19302914789597,-14.602100947985981 L 168.78270985273298,-11.954271745471026 L 176.60635050295804,-11.752660793024848 L 172.07345487477994,-18.13253988467259 L 170.66313557961695,-15.484710682157633 A 153.86198421570137 153.86198421570137 0 0 0 118.9475304580468,-32.15919642589448"/><text text-anchor="middle" pointer-events="none" font-size="8px" fill="#000000" x="95.71023004853414" y="-30.02420466715857" font-family="sans-serif">twowheeler</text></g><g class="relationship" transform="translate(53.55671245471429 -6.526848889691621) rotate(385.95134467057557)"><path class="outline" fill="#A5ABB6" stroke="none" d="M 21.40063509461097,12.933012701892217 L 21.90063509461097,12.06698729810778 A 160.10641662760744 160.10641662760744 0 0 0 76.26114636875194,31.44224728120163 L 76.10067374322674,32.42928757240411 A 161.10641662760744 161.10641662760744 0 0 1 21.40063509461097,12.933012701892217 Z M 122.54145805064763,33.19633075427252 L 122.41366913278087,32.20452936665983 A 160.10641662760744 160.10641662760744 0 0 0 177.38438138596067,14.635047878107446 L 175.97099884515364,11.988852535102351 L 183.79440094310706,11.778187840058546 L 179.26889144037006,18.16330833544757 L 177.85550889956303,15.517112992442478 A 161.10641662760744 161.10641662760744 0 0 1 122.54145805064763,33.19633075427252"/><text text-anchor="middle" pointer-events="none" font-size="8px" fill="#000000" x="99.30153555306283" y="36.99527777626433" font-family="sans-serif">twowheeler</text></g><g class="relationship" transform="translate(238.64645971492362 83.55296589970878) rotate(361.42472202151293)"><path class="outline" fill="#A5ABB6" stroke="none" d="M 25 0.5 L 174.9966112204044 0.5 L 174.9966112204044 -0.5 L 25 -0.5 Z M 194.3325487204044 0.5 L 344.3291599408088 0.5 L 344.3291599408088 3.5 L 351.3291599408088 0 L 344.3291599408088 -3.5 L 344.3291599408088 -0.5 L 194.3325487204044 -0.5 Z"/><text text-anchor="middle" pointer-events="none" font-size="8px" fill="#000000" x="184.6645799704044" y="3" font-family="sans-serif">trek</text></g><g class="relationship" transform="translate(-374.6109662377508 118.7851500616264) rotate(352.3077813233126)"><path class="outline" fill="#A5ABB6" stroke="none" d="M 24.018736134675446,6.953439040707552 L 24.277555179777966,5.987513214418485 A 393.87288768192025 393.87288768192025 0 0 0 113.82926460350679,19.213479998276796 L 113.79780751253818,20.212985101529284 A 394.87288768192025 394.87288768192025 0 0 1 24.018736134675446,6.953439040707552 Z M 133.15585347734412,20.347477110847137 L 133.13828708108767,19.34763141189029 A 393.87288768192025 393.87288768192025 0 0 0 222.86512039722493,7.367220686970597 L 222.12900148507055,4.458934430913837 L 229.77380814671642,6.134324267953169 L 223.84661228009742,11.244935695046278 L 223.11049336794304,8.336649438989518 A 394.87288768192025 394.87288768192025 0 0 1 133.15585347734412,20.347477110847137"/><text text-anchor="middle" pointer-events="none" font-size="8px" fill="#000000" x="123.4794799102324" y="22.898888725715665" font-family="sans-serif">trek</text></g><g class="relationship" transform="translate(-122.88717267080496 84.78556870831304) rotate(332.6377418242123)"><path class="outline" fill="#A5ABB6" stroke="none" d="M 25 0.5 L 84.82993755362466 0.5 L 84.82993755362466 -0.5 L 25 -0.5 Z M 106.84165630362466 0.5 L 166.67159385724932 0.5 L 166.67159385724932 3.5 L 173.67159385724932 0 L 166.67159385724932 -3.5 L 166.67159385724932 -0.5 L 106.84165630362466 -0.5 Z"/><text text-anchor="middle" pointer-events="none" font-size="8px" fill="#000000" x="95.83579692862466" y="3" font-family="sans-serif">road</text></g><g class="relationship" transform="translate(-122.88717267080496 84.78556870831304) rotate(332.6377418242123)"><path class="outline" fill="#A5ABB6" stroke="none" d="M 21.40063509461097,12.933012701892217 L 21.90063509461097,12.06698729810778 A 152.86198421570137 152.86198421570137 0 0 0 86.09530620430374,32.05607533899645 L 86.01525804150552,33.05286633596252 A 153.86198421570137 153.86198421570137 0 0 1 21.40063509461097,12.933012701892217 Z M 105.3985572887336,33.384231048327095 L 105.35262696928338,32.385286402335524 A 152.86198421570137 152.86198421570137 0 0 0 170.19302914789597,14.602100947985981 L 168.78270985273298,11.954271745471026 L 176.60635050295804,11.752660793024848 L 172.07345487477994,18.13253988467259 L 170.66313557961695,15.484710682157633 A 153.86198421570137 153.86198421570137 0 0 1 105.3985572887336,33.384231048327095"/><text text-anchor="middle" pointer-events="none" font-size="8px" fill="#000000" x="95.71023004853417" y="36.02420466715857" font-family="sans-serif">trek</text></g><g class="relationship" transform="translate(53.55671245471429 -6.526848889691621) rotate(385.95134467057557)"><path class="outline" fill="#A5ABB6" stroke="none" d="M 25 0.5 L 88.41715502574135 0.5 L 88.41715502574135 -0.5 L 25 -0.5 Z M 110.42887377574135 0.5 L 173.8460288014827 0.5 L 173.8460288014827 3.5 L 180.8460288014827 0 L 173.8460288014827 -3.5 L 173.8460288014827 -0.5 L 110.42887377574135 -0.5 Z"/><text text-anchor="middle" pointer-events="none" font-size="8px" fill="#000000" x="99.42301440074135" y="3" font-family="sans-serif">road</text></g><g class="relationship" transform="translate(53.55671245471429 -6.526848889691621) rotate(385.95134467057557)"><path class="outline" fill="#A5ABB6" stroke="none" d="M 21.40063509461097,-12.933012701892217 L 21.90063509461097,-12.06698729810778 A 160.10641662760744 160.10641662760744 0 0 1 89.68384455734986,-33.04632242864058 L 89.60720803578181,-34.04338152596729 A 161.10641662760744 161.10641662760744 0 0 0 21.40063509461097,-12.933012701892217 Z M 108.98898674834878,-34.36350233003351 L 108.94531906901484,-33.364456218093935 A 160.10641662760744 160.10641662760744 0 0 1 177.38438138596067,-14.635047878107446 L 175.97099884515364,-11.988852535102351 L 183.79440094310706,-11.778187840058546 L 179.26889144037006,-18.16330833544757 L 177.85550889956303,-15.517112992442478 A 161.10641662760744 161.10641662760744 0 0 0 108.98898674834878,-34.36350233003351"/><text text-anchor="middle" pointer-events="none" font-size="8px" fill="#000000" x="99.30153555306278" y="-30.99527777626433" font-family="sans-serif">trek</text></g><g class="relationship" transform="translate(-374.6109662377508 118.7851500616264) rotate(365.781284322552)"><path class="outline" fill="#A5ABB6" stroke="none" d="M 21.40063509461097,12.933012701892217 L 21.90063509461097,12.06698729810778 A 326.30228858205294 326.30228858205294 0 0 0 172.3744818993956,55.536846340128534 L 172.3356305093507,56.53609133986163 A 327.30228858205294 327.30228858205294 0 0 1 21.40063509461097,12.933012701892217 Z M 191.6974936246379,56.71572869741357 L 191.67718910960443,55.715934855329465 A 326.30228858205294 326.30228858205294 0 0 0 342.93168101836005,15.045480041211936 L 341.4801444479107,12.420019779724795 L 349.29967772357156,12.09613808707797 L 344.8670631122925,18.546093723194794 L 343.4155265418431,15.92063346170765 A 327.30228858205294 327.30228858205294 0 0 1 191.6974936246379,56.71572869741357"/><text text-anchor="middle" pointer-events="none" font-size="8px" fill="#000000" x="182.01987214131617" y="59.26914009730791" font-family="sans-serif">trek</text></g><g class="relationship" transform="translate(-5.320390964199021 156.17444936223154) rotate(343.4233382962781)"><path class="outline" fill="#A5ABB6" stroke="none" d="M 25 0.5 L 114.10506854638379 0.5 L 114.10506854638379 -0.5 L 25 -0.5 Z M 133.4410060463838 0.5 L 222.54607459276758 0.5 L 222.54607459276758 3.5 L 229.54607459276758 0 L 222.54607459276758 -3.5 L 222.54607459276758 -0.5 L 133.4410060463838 -0.5 Z"/><text text-anchor="middle" pointer-events="none" font-size="8px" fill="#000000" x="123.77303729638379" y="3" font-family="sans-serif">trek</text></g><g class="relationship" transform="translate(-374.6109662377508 118.7851500616264) rotate(365.781284322552)"><path class="outline" fill="#A5ABB6" stroke="none" d="M 25 0.5 L 171.08339724298224 0.5 L 171.08339724298224 -0.5 L 25 -0.5 Z M 193.09511599298224 0.5 L 339.1785132359645 0.5 L 339.1785132359645 3.5 L 346.1785132359645 0 L 339.1785132359645 -3.5 L 339.1785132359645 -0.5 L 193.09511599298224 -0.5 Z"/><text text-anchor="middle" pointer-events="none" font-size="8px" fill="#000000" x="182.08925661798224" y="3" font-family="sans-serif">road</text></g><g class="relationship" transform="translate(-374.6109662377508 118.7851500616264) rotate(365.781284322552)"><path class="outline" fill="#A5ABB6" stroke="none" d="M 21.40063509461097,-12.933012701892217 L 21.90063509461097,-12.06698729810778 A 326.30228858205294 326.30228858205294 0 0 1 151.26905143967264,-54.02969642265106 L 151.16551944149768,-55.024322546053156 A 327.30228858205294 327.30228858205294 0 0 0 21.40063509461097,-12.933012701892217 Z M 212.89201004060806,-55.597014522861 L 212.80695035228268,-54.60063866535438 A 326.30228858205294 326.30228858205294 0 0 1 342.93168101836005,-15.045480041211936 L 341.4801444479107,-12.420019779724795 L 349.29967772357156,-12.09613808707797 L 344.8670631122925,-18.546093723194794 L 343.4155265418431,-15.92063346170765 A 327.30228858205294 327.30228858205294 0 0 0 212.89201004060806,-55.597014522861"/><text text-anchor="middle" pointer-events="none" font-size="8px" fill="#000000" x="182.01987214131626" y="-53.26914009730791" font-family="sans-serif">PublicTransport</text></g><g class="relationship" transform="translate(-5.320390964199021 156.17444936223154) rotate(372.1940450033993)"><path class="outline" fill="#A5ABB6" stroke="none" d="M 24.018736134675446,-6.953439040707552 L 24.277555179777966,-5.987513214418485 A 284.90608444720334 284.90608444720334 0 0 1 72.33964481621994,-14.536028124619179 L 72.24952027172698,-15.531958627455595 A 285.90608444720334 285.90608444720334 0 0 0 24.018736134675446,-6.953439040707552 Z M 118.74255943077377,-15.943233445396402 L 118.67006750192746,-14.945864446353369 A 284.90608444720334 284.90608444720334 0 0 1 166.87586347391618,-7.248929855342256 L 166.1507909886386,-4.337869929629054 L 173.7891820481266,-6.042270710646713 L 167.84262678761965,-11.130343089626527 L 167.11755430234206,-8.219283163913325 A 285.90608444720334 285.90608444720334 0 0 0 118.74255943077377,-15.943233445396402"/><text text-anchor="middle" pointer-events="none" font-size="8px" fill="#000000" x="95.49208845098248" y="-13.18428666608321" font-family="sans-serif">twowheeler</text></g><g class="relationship" transform="translate(188.25923535650142 198.0067864337734) rotate(342.7733090727693)"><path class="outline" fill="#A5ABB6" stroke="none" d="M 24.018736134675446,-6.953439040707552 L 24.277555179777966,-5.987513214418485 A 292.73986623524894 292.73986623524894 0 0 1 74.34481720046114,-14.832136253810916 L 74.25702802793651,-15.828275331042335 A 293.73986623524894 293.73986623524894 0 0 0 24.018736134675446,-6.953439040707552 Z M 120.75067214477254,-16.231647889647434 L 120.68017962161613,-15.234135581864223 A 292.73986623524894 292.73986623524894 0 0 1 170.89336297333816,-7.259532103129933 L 170.16730038341223,-4.34871896664899 L 177.80627072344802,-6.050521582716215 L 171.86144642657274,-11.140616285104525 L 171.1353838366468,-8.229803148623581 A 293.73986623524894 293.73986623524894 0 0 0 120.75067214477254,-16.231647889647434"/><text text-anchor="middle" pointer-events="none" font-size="8px" fill="#000000" x="97.50019420624295" y="-13.45134671752487" font-family="sans-serif">twowheeler</text></g><g class="relationship" transform="translate(381.25783587342994 138.16520302246548) rotate(349.0359647494911)"><path class="outline" fill="#A5ABB6" stroke="none" d="M 24.018736134675446,6.953439040707552 L 24.277555179777966,5.987513214418485 A 362.63315598214433 362.63315598214433 0 0 0 92.27068460034845,17.42047087807026 L 92.19936393563097,18.4179243169757 A 363.63315598214433 363.63315598214433 0 0 1 24.018736134675446,6.953439040707552 Z M 138.6951760228614,18.7621657654841 L 138.638632076439,17.76376565424465 A 362.63315598214433 362.63315598214433 0 0 0 206.79359112907454,7.338808777840806 L 206.06012536071123,4.429852269633915 L 213.70340060961783,6.112214736360911 L 207.77154548689228,11.217417455449993 L 207.03807971852896,8.308460947243104 A 363.63315598214433 363.63315598214433 0 0 1 138.6951760228614,18.7621657654841"/><text text-anchor="middle" pointer-events="none" font-size="8px" fill="#000000" x="115.44546390982163" y="21.833986219564963" font-family="sans-serif">twowheeler</text></g><g class="relationship" transform="translate(-5.320390964199021 156.17444936223154) rotate(372.1940450033993)"><path class="outline" fill="#A5ABB6" stroke="none" d="M 24.018736134675446,6.953439040707552 L 24.277555179777966,5.987513214418485 A 284.90608444720334 284.90608444720334 0 0 0 85.84914861557313,15.435513832449658 L 85.806441464168,16.434601465852666 A 285.90608444720334 285.90608444720334 0 0 1 24.018736134675446,6.953439040707552 Z M 105.17179154375802,16.605906267010084 L 105.14676543891912,15.60621946901955 A 284.90608444720334 284.90608444720334 0 0 0 166.87586347391618,7.248929855342256 L 166.1507909886386,4.337869929629054 L 173.7891820481266,6.042270710646713 L 167.84262678761965,11.130343089626527 L 167.11755430234206,8.219283163913325 A 285.90608444720334 285.90608444720334 0 0 1 105.17179154375802,16.605906267010084"/><text text-anchor="middle" pointer-events="none" font-size="8px" fill="#000000" x="95.49208845098254" y="19.18428666608321" font-family="sans-serif">trek</text></g><g class="relationship" transform="translate(188.25923535650142 198.0067864337734) rotate(342.7733090727693)"><path class="outline" fill="#A5ABB6" stroke="none" d="M 24.018736134675446,6.953439040707552 L 24.277555179777966,5.987513214418485 A 292.73986623524894 292.73986623524894 0 0 0 87.85653970469176,15.708567032894905 L 87.81490660471712,16.707699999514716 A 293.73986623524894 293.73986623524894 0 0 1 24.018736134675446,6.953439040707552 Z M 107.17957604428433,16.875705248549423 L 107.15528459105562,15.876000329435783 A 292.73986623524894 292.73986623524894 0 0 0 170.89336297333816,7.259532103129933 L 170.16730038341223,4.34871896664899 L 177.80627072344802,6.050521582716215 L 171.86144642657274,11.140616285104525 L 171.1353838366468,8.229803148623581 A 293.73986623524894 293.73986623524894 0 0 1 107.17957604428433,16.875705248549423"/><text text-anchor="middle" pointer-events="none" font-size="8px" fill="#000000" x="97.500194206243" y="19.45134671752487" font-family="sans-serif">trek</text></g><g class="relationship" transform="translate(381.25783587342994 138.16520302246548) rotate(349.0359647494911)"><path class="outline" fill="#A5ABB6" stroke="none" d="M 24.018736134675446,-6.953439040707552 L 24.277555179777966,-5.987513214418485 A 362.63315598214433 362.63315598214433 0 0 1 105.79686534840361,-18.134019554943166 L 105.76284458449477,-19.133440681207276 A 363.63315598214433 363.63315598214433 0 0 0 24.018736134675446,-6.953439040707552 Z M 125.12258788550012,-19.27677458113328 L 125.10336888570063,-18.276959283167344 A 362.63315598214433 362.63315598214433 0 0 1 206.79359112907454,-7.338808777840806 L 206.06012536071123,-4.429852269633915 L 213.70340060961783,-6.112214736360911 L 207.77154548689228,-11.217417455449993 L 207.03807971852896,-8.308460947243104 A 363.63315598214433 363.63315598214433 0 0 0 125.12258788550012,-19.27677458113328"/><text text-anchor="middle" pointer-events="none" font-size="8px" fill="#000000" x="115.44546390982167" y="-15.833986219564963" font-family="sans-serif">trek</text></g><g class="relationship" transform="translate(-5.320390964199021 156.17444936223154) rotate(211.26695376807822)"><path class="outline" fill="#A5ABB6" stroke="none" d="M 25 0.5 L 55.60397400623627 0.5 L 55.60397400623627 -0.5 L 25 -0.5 Z M 74.93991150623627 0.5 L 105.54388551247254 0.5 L 105.54388551247254 3.5 L 112.54388551247254 0 L 105.54388551247254 -3.5 L 105.54388551247254 -0.5 L 74.93991150623627 -0.5 Z"/><text text-anchor="middle" pointer-events="none" font-size="8px" fill="#000000" x="65.27194275623627" y="3" transform="rotate(180 65.27194275623627 0)" font-family="sans-serif">trek</text></g><g class="relationship" transform="translate(188.25923535650142 198.0067864337734) rotate(373.49462069451414)"><path class="outline" fill="#A5ABB6" stroke="none" d="M 24.018736134675446,-6.953439040707552 L 24.277555179777966,-5.987513214418485 A 330.3899334307963 330.3899334307963 0 0 1 83.99406116275017,-16.23679665721312 L 83.91598765478577,-17.23374426233289 A 331.3899334307963 331.3899334307963 0 0 0 24.018736134675446,-6.953439040707552 Z M 130.41135259743916,-17.60297678584851 L 130.34912200967776,-16.60491498718733 A 330.3899334307963 330.3899334307963 0 0 1 190.22087107149403,-7.305314878365443 L 189.49053306172667,-4.39557152344751 L 197.1319952345971,-6.086150081394608 L 191.19465508451717,-11.184972684922686 L 190.4643170747498,-8.275229330004754 A 331.3899334307963 331.3899334307963 0 0 0 130.41135259743916,-17.60297678584851"/><text text-anchor="middle" pointer-events="none" font-size="8px" fill="#000000" x="107.16115684275654" y="-14.734844093104584" font-family="sans-serif">twowheeler</text></g><g class="relationship" transform="translate(403.5271999437645 249.66667704286357) rotate(258.70535099937865)"><path class="outline" fill="#A5ABB6" stroke="none" d="M 21.40063509461097,12.933012701892217 L 21.90063509461097,12.06698729810778 A 66.39318175471949 66.39318175471949 0 0 0 30.685247505853805,16.311091344496333 L 30.31755947191828,17.24104054187253 A 67.39318175471949 67.39318175471949 0 0 1 21.40063509461097,12.933012701892217 Z M 76.1746985071234,18.581156401098397 L 75.8619447242279,17.63132216751626 A 66.39318175471949 66.39318175471949 0 0 0 84.87941066377037,13.907460945407554 L 83.53369184575261,11.226222264716686 L 91.35992072171868,11.214323483481275 L 86.67370242112737,17.482445852995376 L 85.32798360310962,14.801207172304508 A 67.39318175471949 67.39318175471949 0 0 1 76.1746985071234,18.581156401098397"/><text text-anchor="middle" pointer-events="none" font-size="8px" fill="#000000" x="53.143193061456415" y="24.43344106035289" transform="rotate(180 53.143193061456415 21.43344106035289)" font-family="sans-serif">twowheeler</text></g><g class="relationship" transform="translate(188.25923535650142 198.0067864337734) rotate(373.49462069451414)"><path class="outline" fill="#A5ABB6" stroke="none" d="M 24.018736134675446,6.953439040707552 L 24.277555179777966,5.987513214418485 A 330.3899334307963 330.3899334307963 0 0 0 97.51456523868916,17.017201346424997 L 97.47741460006141,18.01651102317669 A 331.3899334307963 331.3899334307963 0 0 1 24.018736134675446,6.953439040707552 Z M 116.8392044665371,18.17026833943811 L 116.81792910028888,17.170494685658923 A 330.3899334307963 330.3899334307963 0 0 0 190.22087107149403,7.305314878365443 L 189.49053306172667,4.39557152344751 L 197.1319952345971,6.086150081394608 L 191.19465508451717,11.184972684922686 L 190.4643170747498,8.275229330004754 A 331.3899334307963 331.3899334307963 0 0 1 116.8392044665371,18.17026833943811"/><text text-anchor="middle" pointer-events="none" font-size="8px" fill="#000000" x="107.16115684275668" y="20.734844093104584" font-family="sans-serif">trek</text></g><g class="relationship" transform="translate(403.5271999437645 249.66667704286357) rotate(258.70535099937865)"><path class="outline" fill="#A5ABB6" stroke="none" d="M 25 0.5 L 42.34592882207129 0.5 L 42.34592882207129 -0.5 L 25 -0.5 Z M 64.3576475720713 0.5 L 81.70357639414259 0.5 L 81.70357639414259 3.5 L 88.70357639414259 0 L 81.70357639414259 -3.5 L 81.70357639414259 -0.5 L 64.3576475720713 -0.5 Z"/><text text-anchor="middle" pointer-events="none" font-size="8px" fill="#000000" x="53.35178819707129" y="3" transform="rotate(180 53.35178819707129 0)" font-family="sans-serif">road</text></g><g class="relationship" transform="translate(403.5271999437645 249.66667704286357) rotate(258.70535099937865)"><path class="outline" fill="#A5ABB6" stroke="none" d="M 21.40063509461097,-12.933012701892217 L 21.90063509461097,-12.06698729810778 A 66.39318175471949 66.39318175471949 0 0 1 43.61976712873734,-19.962402210122463 L 43.44689608174285,-20.947346676126017 A 67.39318175471949 67.39318175471949 0 0 0 21.40063509461097,-12.933012701892217 Z M 62.85132912803638,-21.514416253769326 L 62.73627144780566,-20.521057441345576 A 66.39318175471949 66.39318175471949 0 0 1 84.87941066377037,-13.907460945407554 L 83.53369184575261,-11.226222264716686 L 91.35992072171868,-11.214323483481275 L 86.67370242112737,-17.482445852995376 L 85.32798360310962,-14.801207172304508 A 67.39318175471949 67.39318175471949 0 0 0 62.85132912803638,-21.514416253769326"/><text text-anchor="middle" pointer-events="none" font-size="8px" fill="#000000" x="53.14319306145642" y="-18.43344106035289" transform="rotate(180 53.14319306145642 -21.43344106035289)" font-family="sans-serif">trek</text></g><g class="relationship" transform="translate(403.5271999437645 249.66667704286357) rotate(346.05088636168216)"><path class="outline" fill="#A5ABB6" stroke="none" d="M 25 0.5 L 58.72768098736725 0.5 L 58.72768098736725 -0.5 L 25 -0.5 Z M 78.06361848736725 0.5 L 111.7912994747345 0.5 L 111.7912994747345 3.5 L 118.7912994747345 0 L 111.7912994747345 -3.5 L 111.7912994747345 -0.5 L 78.06361848736725 -0.5 Z"/><text text-anchor="middle" pointer-events="none" font-size="8px" fill="#000000" x="68.39564973736725" y="3" font-family="sans-serif">trek</text></g><g class="relationship" transform="translate(543.0781231530706 215.00433961355643) rotate(300.4518973537052)"><path class="outline" fill="#A5ABB6" stroke="none" d="M 25 0.5 L 57.64799358670015 0.5 L 57.64799358670015 -0.5 L 25 -0.5 Z M 76.98393108670015 0.5 L 109.6319246734003 0.5 L 109.6319246734003 3.5 L 116.6319246734003 0 L 109.6319246734003 -3.5 L 109.6319246734003 -0.5 L 76.98393108670015 -0.5 Z"/><text text-anchor="middle" pointer-events="none" font-size="8px" fill="#000000" x="67.31596233670015" y="3" font-family="sans-serif">trek</text></g></g><g class="layer nodes"><g class="node" transform="translate(-374.6109662377508,118.7851500616264)"><circle class="outline" cx="0" cy="0" r="25" fill="#F16667" stroke="#eb2728" stroke-width="2px"/><text text-anchor="middle" pointer-events="none" font-family="sans-serif" dy="1.5625" font-size="25" fill="#FFFFFF"/><text text-anchor="middle" pointer-events="none" x="0" y="5" font-size="10px" fill="#FFFFFF" font-family="sans-serif"> Darjeeling</text></g><g class="node" transform="translate(614.8592792680097,92.90983640602263)"><circle class="outline" cx="0" cy="0" r="25" fill="#8DCC93" stroke="#5db665" stroke-width="2px"/><text text-anchor="middle" pointer-events="none" font-family="sans-serif" dy="1.5625" font-size="25" fill="#2A2C34"/><text text-anchor="middle" pointer-events="none" x="0" y="5" font-size="10px" fill="#2A2C34" font-family="sans-serif"> Sandak…</text></g><g class="node" transform="translate(-122.88717267080496,84.78556870831304)"><circle class="outline" cx="0" cy="0" r="25" fill="#D9C8AE" stroke="#c0a378" stroke-width="2px"/><text text-anchor="middle" pointer-events="none" font-family="sans-serif" dy="1.5625" font-size="25" fill="#2A2C34"/><text text-anchor="middle" pointer-events="none" x="0" y="5" font-size="10px" fill="#2A2C34" font-family="sans-serif"> Tumbling</text></g><g class="node" transform="translate(53.55671245471429,-6.526848889691621)"><circle class="outline" cx="0" cy="0" r="25" fill="#D9C8AE" stroke="#c0a378" stroke-width="2px"/><text text-anchor="middle" pointer-events="none" font-family="sans-serif" dy="1.5625" font-size="25" fill="#2A2C34"/><text text-anchor="middle" pointer-events="none" x="0" y="5" font-size="10px" fill="#2A2C34" font-family="sans-serif"> Gairibus</text></g><g class="node" transform="translate(238.64645971492362,83.55296589970878)"><circle class="outline" cx="0" cy="0" r="25" fill="#D9C8AE" stroke="#c0a378" stroke-width="2px"/><text text-anchor="middle" pointer-events="none" font-family="sans-serif" dy="1.5625" font-size="25" fill="#2A2C34"/><text text-anchor="middle" pointer-events="none" x="0" y="5" font-size="10px" fill="#2A2C34" font-family="sans-serif"> BhikeBh…</text></g><g class="node" transform="translate(-5.320390964199021,156.17444936223154)"><circle class="outline" cx="0" cy="0" r="25" fill="#F16667" stroke="#eb2728" stroke-width="2px"/><text text-anchor="middle" pointer-events="none" font-family="sans-serif" dy="1.5625" font-size="25" fill="#FFFFFF"/><text text-anchor="middle" pointer-events="none" x="0" y="5" font-size="10px" fill="#FFFFFF" font-family="sans-serif"> Rimbik</text></g><g class="node" transform="translate(188.25923535650142,198.0067864337734)"><circle class="outline" cx="0" cy="0" r="25" fill="#D9C8AE" stroke="#c0a378" stroke-width="2px"/><text text-anchor="middle" pointer-events="none" font-family="sans-serif" dy="1.5625" font-size="25" fill="#2A2C34"/><text text-anchor="middle" pointer-events="none" x="0" y="5" font-size="10px" fill="#2A2C34" font-family="sans-serif"> Sirikhola</text></g><g class="node" transform="translate(381.25783587342994,138.16520302246548)"><circle class="outline" cx="0" cy="0" r="25" fill="#D9C8AE" stroke="#c0a378" stroke-width="2px"/><text text-anchor="middle" pointer-events="none" font-family="sans-serif" dy="1.5625" font-size="25" fill="#2A2C34"/><text text-anchor="middle" pointer-events="none" x="0" y="5" font-size="10px" fill="#2A2C34" font-family="sans-serif"> Gurdum</text></g><g class="node" transform="translate(403.5271999437645,249.66667704286357)"><circle class="outline" cx="0" cy="0" r="25" fill="#D9C8AE" stroke="#c0a378" stroke-width="2px"/><text text-anchor="middle" pointer-events="none" font-family="sans-serif" dy="1.5625" font-size="25" fill="#2A2C34"/><text text-anchor="middle" pointer-events="none" x="0" y="5" font-size="10px" fill="#2A2C34" font-family="sans-serif"> Rammam</text></g><g class="node" transform="translate(543.0781231530706,215.00433961355643)"><circle class="outline" cx="0" cy="0" r="25" fill="#8DCC93" stroke="#5db665" stroke-width="2px"/><text text-anchor="middle" pointer-events="none" font-family="sans-serif" dy="1.5625" font-size="25" fill="#2A2C34"/><text text-anchor="middle" pointer-events="none" x="0" y="5" font-size="10px" fill="#2A2C34" font-family="sans-serif"> Sabargr…</text></g></g></svg>