<svg xmlns="http://www.w3.org/2000/svg" width="250.553955078125" height="429.82818603515625" viewBox="4.903633117675781 -113.85909271240234 250.553955078125 429.82818603515625"><title>Neo4j Graph Visualization</title><desc>Created using Neo4j (http://www.neo4j.com/)</desc><g class="layer relationships"><g class="relationship" transform="translate(200.55582979322392 10.783512414205454) rotate(436.2675857448236)"><path class="outline" fill="#A5ABB6" stroke="none" d="M 25 0.5 L 26.719804202426047 0.5 L 26.719804202426047 -0.5 L 25 -0.5 Z M 75.39167920242605 0.5 L 77.1114834048521 0.5 L 77.1114834048521 3.5 L 84.1114834048521 0 L 77.1114834048521 -3.5 L 77.1114834048521 -0.5 L 75.39167920242605 -0.5 Z"/><text text-anchor="middle" pointer-events="none" font-size="8px" fill="#000000" x="51.05574170242605" y="3" font-family="sans-serif">DESTINA…</text></g><g class="relationship" transform="translate(200.55582979322392 10.783512414205454) rotate(181.1673738199038)"><path class="outline" fill="#A5ABB6" stroke="none" d="M 25 0.5 L 36.872544792523435 0.5 L 36.872544792523435 -0.5 L 25 -0.5 Z M 71.31785729252343 0.5 L 83.19040208504687 0.5 L 83.19040208504687 3.5 L 90.19040208504687 0 L 83.19040208504687 -3.5 L 83.19040208504687 -0.5 L 71.31785729252343 -0.5 Z"/><text text-anchor="middle" pointer-events="none" font-size="8px" fill="#000000" x="54.095201042523435" y="3" transform="rotate(180 54.095201042523435 0)" font-family="sans-serif">ORIGIN</text></g><g class="relationship" transform="translate(146.6795223706651 191.2050083611334) rotate(188.80428139606084)"><path class="outline" fill="#A5ABB6" stroke="none" d="M 25 0.5 L 25.96653809243722 0.5 L 25.96653809243722 -0.5 L 25 -0.5 Z M 81.15403809243722 0.5 L 82.12057618487444 0.5 L 82.12057618487444 3.5 L 89.12057618487444 0 L 82.12057618487444 -3.5 L 82.12057618487444 -0.5 L 81.15403809243722 -0.5 Z"/><text text-anchor="middle" pointer-events="none" font-size="8px" fill="#000000" x="53.56028809243722" y="3" transform="rotate(180 53.56028809243722 0)" font-family="sans-serif">DESTINATI…</text></g><g class="relationship" transform="translate(146.6795223706651 191.2050083611334) rotate(316.98665618587506)"><path class="outline" fill="#A5ABB6" stroke="none" d="M 25 0.5 L 33.8305431281318 0.5 L 33.8305431281318 -0.5 L 25 -0.5 Z M 68.27585562813181 0.5 L 77.1063987562636 0.5 L 77.1063987562636 3.5 L 84.1063987562636 0 L 77.1063987562636 -3.5 L 77.1063987562636 -0.5 L 68.27585562813181 -0.5 Z"/><text text-anchor="middle" pointer-events="none" font-size="8px" fill="#000000" x="51.0531993781318" y="3" font-family="sans-serif">ORIGIN</text></g><g class="relationship" transform="translate(150.53788326929333 -84.85908978273471) rotate(422.3919072560417)"><path class="outline" fill="#A5ABB6" stroke="none" d="M 25 0.5 L 32.350732514959745 0.5 L 32.350732514959745 -0.5 L 25 -0.5 Z M 68.58120126495974 0.5 L 75.93193377991949 0.5 L 75.93193377991949 3.5 L 82.93193377991949 0 L 75.93193377991949 -3.5 L 75.93193377991949 -0.5 L 68.58120126495974 -0.5 Z"/><text text-anchor="middle" pointer-events="none" font-size="8px" fill="#000000" x="50.465966889959745" y="3" font-family="sans-serif">ASSIGN</text></g><g class="relationship" transform="translate(102.65638018585888 286.9690877624155) rotate(294.68843684843677)"><path class="outline" fill="#A5ABB6" stroke="none" d="M 25 0.5 L 31.08390212503842 0.5 L 31.08390212503842 -0.5 L 25 -0.5 Z M 67.31437087503842 0.5 L 73.39827300007684 0.5 L 73.39827300007684 3.5 L 80.39827300007684 0 L 73.39827300007684 -3.5 L 73.39827300007684 -0.5 L 67.31437087503842 -0.5 Z"/><text text-anchor="middle" pointer-events="none" font-size="8px" fill="#000000" x="49.19913650003842" y="3" font-family="sans-serif">ASSIGN</text></g></g><g class="layer nodes"><g class="node" transform="translate(85.38933585469779,8.43672601101623)"><circle class="outline" cx="0" cy="0" r="25" fill="#ECB5C9" stroke="#da7298" stroke-width="2px"/><text text-anchor="middle" pointer-events="none" font-family="sans-serif" dy="1.5625" font-size="25" fill="#2A2C34"/><text text-anchor="middle" pointer-events="none" x="0" y="5" font-size="10px" fill="#2A2C34" font-family="sans-serif"> MSN</text></g><g class="node" transform="translate(226.457559113173,116.77604153321177)"><circle class="outline" cx="0" cy="0" r="25" fill="#ECB5C9" stroke="#da7298" stroke-width="2px"/><text text-anchor="middle" pointer-events="none" font-family="sans-serif" dy="1.5625" font-size="25" fill="#2A2C34"/><text text-anchor="middle" pointer-events="none" x="0" y="5" font-size="10px" fill="#2A2C34" font-family="sans-serif"> ORD</text></g><g class="node" transform="translate(33.90363499433663,173.73774941047353)"><circle class="outline" cx="0" cy="0" r="25" fill="#ECB5C9" stroke="#da7298" stroke-width="2px"/><text text-anchor="middle" pointer-events="none" font-family="sans-serif" dy="1.5625" font-size="25" fill="#2A2C34"/><text text-anchor="middle" pointer-events="none" x="0" y="5" font-size="10px" fill="#2A2C34" font-family="sans-serif"> GRR</text></g><g class="node" transform="translate(200.55582979322392,10.783512414205454)"><circle class="outline" cx="0" cy="0" r="25" fill="#4C8EDA" stroke="#2870c2" stroke-width="2px"/><text text-anchor="middle" pointer-events="none" font-family="sans-serif" dy="1.5625" font-size="25" fill="#FFFFFF"/><text text-anchor="middle" pointer-events="none" x="0" y="5" font-size="10px" fill="#FFFFFF" font-family="sans-serif"> 11/30/20…</text></g><g class="node" transform="translate(146.6795223706651,191.2050083611334)"><circle class="outline" cx="0" cy="0" r="25" fill="#4C8EDA" stroke="#2870c2" stroke-width="2px"/><text text-anchor="middle" pointer-events="none" font-family="sans-serif" dy="1.5625" font-size="25" fill="#FFFFFF"/><text text-anchor="middle" pointer-events="none" x="0" y="5" font-size="10px" fill="#FFFFFF" font-family="sans-serif"> 11/17/20…</text></g><g class="node" transform="translate(150.53788326929333,-84.85908978273471)"><circle class="outline" cx="0" cy="0" r="25" fill="#FFC454" stroke="#d7a013" stroke-width="2px"/><text text-anchor="middle" pointer-events="none" font-family="sans-serif" dy="1.5625" font-size="25" fill="#2A2C34"/><text text-anchor="middle" pointer-events="none" x="0" y="5" font-size="10px" fill="#2A2C34" font-family="sans-serif"> economy</text></g><g class="node" transform="translate(102.65638018585888,286.9690877624155)"><circle class="outline" cx="0" cy="0" r="25" fill="#FFC454" stroke="#d7a013" stroke-width="2px"/><text text-anchor="middle" pointer-events="none" font-family="sans-serif" dy="1.5625" font-size="25" fill="#2A2C34"/><text text-anchor="middle" pointer-events="none" x="0" y="5" font-size="10px" fill="#2A2C34" font-family="sans-serif"> economy</text></g></g></svg>