<svg xmlns="http://www.w3.org/2000/svg" width="288.1278381347656" height="284.2344970703125" viewBox="-51.05353546142578 -41.822872161865234 288.1278381347656 284.2344970703125"><title>Neo4j Graph Visualization</title><desc>Created using Neo4j (http://www.neo4j.com/)</desc><g class="layer relationships"><g class="relationship" transform="translate(152.6975039607827 205.38357079015535) rotate(238.59291221311992)"><path class="outline" fill="#A5ABB6" stroke="none" d="M 25 0.5 L 32.55762175057796 0.5 L 32.55762175057796 -0.5 L 25 -0.5 Z M 78.12012175057797 0.5 L 85.67774350115592 0.5 L 85.67774350115592 3.5 L 92.67774350115592 0 L 85.67774350115592 -3.5 L 85.67774350115592 -0.5 L 78.12012175057797 -0.5 Z"/><text text-anchor="middle" pointer-events="none" font-size="8px" fill="#000000" x="55.33887175057796" y="3" transform="rotate(180 55.33887175057796 0)" font-family="sans-serif">ACTED_IN</text></g><g class="relationship" transform="translate(208.074324619033 119.73290079181037) rotate(187.22076775516916)"><path class="outline" fill="#A5ABB6" stroke="none" d="M 25 0.5 L 31.871392324909067 0.5 L 31.871392324909067 -0.5 L 25 -0.5 Z M 78.76201732490907 0.5 L 85.63340964981813 0.5 L 85.63340964981813 3.5 L 92.63340964981813 0 L 85.63340964981813 -3.5 L 85.63340964981813 -0.5 L 78.76201732490907 -0.5 Z"/><text text-anchor="middle" pointer-events="none" font-size="8px" fill="#000000" x="55.31670482490907" y="3" transform="rotate(180 55.31670482490907 0)" font-family="sans-serif">DIRECTED</text></g><g class="relationship" transform="translate(180.7671486989662 29.22529763545944) rotate(499.73323802557843)"><path class="outline" fill="#A5ABB6" stroke="none" d="M 25 0.5 L 37.19009749749284 0.5 L 37.19009749749284 -0.5 L 25 -0.5 Z M 72.96353499749284 0.5 L 85.15363249498569 0.5 L 85.15363249498569 3.5 L 92.15363249498569 0 L 85.15363249498569 -3.5 L 85.15363249498569 -0.5 L 72.96353499749284 -0.5 Z"/><text text-anchor="middle" pointer-events="none" font-size="8px" fill="#000000" x="55.07681624749284" y="3" transform="rotate(180 55.07681624749284 0)" font-family="sans-serif">WROTE</text></g><g class="relationship" transform="translate(96.03647196247192 -12.822871701246417) rotate(452.2672106538178)"><path class="outline" fill="#A5ABB6" stroke="none" d="M 25 0.5 L 32.64992943004367 0.5 L 32.64992943004367 -0.5 L 25 -0.5 Z M 78.21242943004367 0.5 L 85.86235886008734 0.5 L 85.86235886008734 3.5 L 92.86235886008734 0 L 85.86235886008734 -3.5 L 85.86235886008734 -0.5 L 78.21242943004367 -0.5 Z"/><text text-anchor="middle" pointer-events="none" font-size="8px" fill="#000000" x="55.43117943004367" y="3" transform="rotate(180 55.43117943004367 0)" font-family="sans-serif">ACTED_IN</text></g><g class="relationship" transform="translate(0.6550923986300625 30.820870738487287) rotate(399.2522825831578)"><path class="outline" fill="#A5ABB6" stroke="none" d="M 25 0.5 L 32.29478535254573 0.5 L 32.29478535254573 -0.5 L 25 -0.5 Z M 77.85728535254573 0.5 L 85.15207070509146 0.5 L 85.15207070509146 3.5 L 92.15207070509146 0 L 85.15207070509146 -3.5 L 85.15207070509146 -0.5 L 77.85728535254573 -0.5 Z"/><text text-anchor="middle" pointer-events="none" font-size="8px" fill="#000000" x="55.07603535254573" y="3" font-family="sans-serif">ACTED_IN</text></g><g class="relationship" transform="translate(-22.053538285960528 134.03730367639332) rotate(345.6156971978978)"><path class="outline" fill="#A5ABB6" stroke="none" d="M 25 0.5 L 32.267881355184116 0.5 L 32.267881355184116 -0.5 L 25 -0.5 Z M 77.83038135518412 0.5 L 85.09826271036823 0.5 L 85.09826271036823 3.5 L 92.09826271036823 0 L 85.09826271036823 -3.5 L 85.09826271036823 -0.5 L 77.83038135518412 -0.5 Z"/><text text-anchor="middle" pointer-events="none" font-size="8px" fill="#000000" x="55.049131355184116" y="3" font-family="sans-serif">ACTED_IN</text></g><g class="relationship" transform="translate(48.37377621746006 213.4116287829796) rotate(291.62555438066585)"><path class="outline" fill="#A5ABB6" stroke="none" d="M 25 0.5 L 36.95180331715046 0.5 L 36.95180331715046 -0.5 L 25 -0.5 Z M 72.72524081715045 0.5 L 84.67704413430091 0.5 L 84.67704413430091 3.5 L 91.67704413430091 0 L 84.67704413430091 -3.5 L 84.67704413430091 -0.5 L 72.72524081715045 -0.5 Z"/><text text-anchor="middle" pointer-events="none" font-size="8px" fill="#000000" x="54.83852206715046" y="3" font-family="sans-serif">WROTE</text></g></g><g class="layer nodes"><g class="node" transform="translate(91.3738411741176,104.94722429173262)"><circle class="outline" cx="0" cy="0" r="25" fill="#57C7E3" stroke="#23b3d7" stroke-width="2px"/><text text-anchor="middle" pointer-events="none" font-family="sans-serif" dy="1.5625" font-size="25" fill="#2A2C34"/><text text-anchor="middle" pointer-events="none" font-family="sans-serif" dy="1.5625" font-size="25" fill="#2A2C34"/><text text-anchor="middle" pointer-events="none" font-family="sans-serif" dy="1.5625" font-size="25" fill="#2A2C34"/><text text-anchor="middle" pointer-events="none" x="0" y="-5" font-size="10px" fill="#2A2C34" font-family="sans-serif"> Captain</text><text text-anchor="middle" pointer-events="none" x="0" y="5" font-size="10px" fill="#2A2C34" font-family="sans-serif"> America:</text><text text-anchor="middle" pointer-events="none" x="0" y="15" font-size="10px" fill="#2A2C34" font-family="sans-serif"> The Fi…</text></g><g class="node" transform="translate(152.6975039607827,205.38357079015535)"><circle class="outline" cx="0" cy="0" r="25" fill="#F79767" stroke="#f36924" stroke-width="2px"/><text text-anchor="middle" pointer-events="none" font-family="sans-serif" dy="1.5625" font-size="25" fill="#FFFFFF"/><text text-anchor="middle" pointer-events="none" x="0" y="5" font-size="10px" fill="#FFFFFF" font-family="sans-serif"> Sebastian</text></g><g class="node" transform="translate(208.074324619033,119.73290079181037)"><circle class="outline" cx="0" cy="0" r="25" fill="#F79767" stroke="#f36924" stroke-width="2px"/><text text-anchor="middle" pointer-events="none" font-family="sans-serif" dy="1.5625" font-size="25" fill="#FFFFFF"/><text text-anchor="middle" pointer-events="none" font-family="sans-serif" dy="1.5625" font-size="25" fill="#FFFFFF"/><text text-anchor="middle" pointer-events="none" x="0" y="0" font-size="10px" fill="#FFFFFF" font-family="sans-serif"> Joe</text><text text-anchor="middle" pointer-events="none" x="0" y="10" font-size="10px" fill="#FFFFFF" font-family="sans-serif"> Johnston</text></g><g class="node" transform="translate(180.7671486989662,29.22529763545944)"><circle class="outline" cx="0" cy="0" r="25" fill="#F79767" stroke="#f36924" stroke-width="2px"/><text text-anchor="middle" pointer-events="none" font-family="sans-serif" dy="1.5625" font-size="25" fill="#FFFFFF"/><text text-anchor="middle" pointer-events="none" x="0" y="5" font-size="10px" fill="#FFFFFF" font-family="sans-serif"> Christop…</text></g><g class="node" transform="translate(96.03647196247192,-12.822871701246417)"><circle class="outline" cx="0" cy="0" r="25" fill="#F79767" stroke="#f36924" stroke-width="2px"/><text text-anchor="middle" pointer-events="none" font-family="sans-serif" dy="1.5625" font-size="25" fill="#FFFFFF"/><text text-anchor="middle" pointer-events="none" font-family="sans-serif" dy="1.5625" font-size="25" fill="#FFFFFF"/><text text-anchor="middle" pointer-events="none" x="0" y="0" font-size="10px" fill="#FFFFFF" font-family="sans-serif"> Tommy</text><text text-anchor="middle" pointer-events="none" x="0" y="10" font-size="10px" fill="#FFFFFF" font-family="sans-serif"> Lee Jon…</text></g><g class="node" transform="translate(0.6550923986300625,30.820870738487287)"><circle class="outline" cx="0" cy="0" r="25" fill="#F79767" stroke="#f36924" stroke-width="2px"/><text text-anchor="middle" pointer-events="none" font-family="sans-serif" dy="1.5625" font-size="25" fill="#FFFFFF"/><text text-anchor="middle" pointer-events="none" font-family="sans-serif" dy="1.5625" font-size="25" fill="#FFFFFF"/><text text-anchor="middle" pointer-events="none" x="0" y="0" font-size="10px" fill="#FFFFFF" font-family="sans-serif"> Hayley</text><text text-anchor="middle" pointer-events="none" x="0" y="10" font-size="10px" fill="#FFFFFF" font-family="sans-serif"> Atwell</text></g><g class="node" transform="translate(-22.053538285960528,134.03730367639332)"><circle class="outline" cx="0" cy="0" r="25" fill="#F79767" stroke="#f36924" stroke-width="2px"/><text text-anchor="middle" pointer-events="none" font-family="sans-serif" dy="1.5625" font-size="25" fill="#FFFFFF"/><text text-anchor="middle" pointer-events="none" font-family="sans-serif" dy="1.5625" font-size="25" fill="#FFFFFF"/><text text-anchor="middle" pointer-events="none" x="0" y="0" font-size="10px" fill="#FFFFFF" font-family="sans-serif"> Chris</text><text text-anchor="middle" pointer-events="none" x="0" y="10" font-size="10px" fill="#FFFFFF" font-family="sans-serif"> Evans</text></g><g class="node" transform="translate(48.37377621746006,213.4116287829796)"><circle class="outline" cx="0" cy="0" r="25" fill="#F79767" stroke="#f36924" stroke-width="2px"/><text text-anchor="middle" pointer-events="none" font-family="sans-serif" dy="1.5625" font-size="25" fill="#FFFFFF"/><text text-anchor="middle" pointer-events="none" font-family="sans-serif" dy="1.5625" font-size="25" fill="#FFFFFF"/><text text-anchor="middle" pointer-events="none" x="0" y="0" font-size="10px" fill="#FFFFFF" font-family="sans-serif"> Stephen</text><text text-anchor="middle" pointer-events="none" x="0" y="10" font-size="10px" fill="#FFFFFF" font-family="sans-serif"> McFeely</text></g></g></svg>